<svg xmlns="http://www.w3.org/2000/svg" style="width:100%; height:auto;" viewBox="0 0 590.07 116" xmlns:xlink="http://www.w3.org/1999/xlink">
<g class="graph" id="graph0" transform="scale(1) rotate(0) translate(4 112)">
<title>%3</title>
<polygon fill="white" stroke="none" points="-4,4 -4,-112 586.075,-112 586.075,4 -4,4"/>
<!-- args1 -->
<g class="node" id="node1"><title>args1</title>
<ellipse fill="none" stroke="black" cx="291.037" cy="-90" rx="97.4827" ry="18"/>
<text font-family="Times,serif" font-size="14px" text-anchor="middle" x="291.037" y="-86.3">*ast.BinaryExpr (Op: +)</text>
</g>
<!-- lhs -->
<g class="node" id="node2"><title>lhs</title>
<ellipse fill="none" stroke="black" cx="141.037" cy="-18" rx="141.075" ry="18"/>
<text font-family="Times,serif" font-size="14px" text-anchor="middle" x="141.037" y="-14.3">*ast.BasicLit (Kind: INT) (Value: 1)</text>
</g>
<!-- args1&#45;&gt;lhs -->
<g class="edge" id="edge1"><title>args1-&gt;lhs</title>
<path fill="none" stroke="black" d="M 257 -73.1159 C 235.88 -63.26 208.509 -50.4867 185.663 -39.825"/>
<polygon fill="black" stroke="black" points="187.047,-36.6089 176.505,-35.5516 184.087,-42.9522 187.047,-36.6089"/>
</g>
<!-- rhs -->
<g class="node" id="node3"><title>rhs</title>
<ellipse fill="none" stroke="black" cx="441.037" cy="-18" rx="141.075" ry="18"/>
<text font-family="Times,serif" font-size="14px" text-anchor="middle" x="441.037" y="-14.3">*ast.BasicLit (Kind: INT) (Value: 1)</text>
</g>
<!-- args1&#45;&gt;rhs -->
<g class="edge" id="edge2"><title>args1-&gt;rhs</title>
<path fill="none" stroke="black" d="M 325.075 -73.1159 C 346.195 -63.26 373.566 -50.4867 396.412 -39.825"/>
<polygon fill="black" stroke="black" points="397.988,-42.9522 405.57,-35.5516 395.028,-36.6089 397.988,-42.9522"/>
</g>
</g>
</svg>