<svg xmlns="http://www.w3.org/2000/svg" style="width:100%; height:auto;" viewBox="0 0 1167.98 548" xmlns:xlink="http://www.w3.org/1999/xlink">
<g class="graph" id="graph0" transform="scale(1) rotate(0) translate(4 544)">
<title>%3</title>
<polygon fill="white" stroke="none" points="-4,4 -4,-544 1163.98,-544 1163.98,4 -4,4"/>
<!-- mainFn -->
<g class="node" id="node1"><title>mainFn</title>
<ellipse fill="none" stroke="black" cx="445.942" cy="-522" rx="52.7911" ry="18"/>
<text font-family="Times,serif" font-size="14px" text-anchor="middle" x="445.942" y="-518.3">func main()</text>
</g>
<!-- mainBody -->
<g class="node" id="node2"><title>mainBody</title>
<ellipse fill="none" stroke="black" cx="445.942" cy="-450" rx="61.1893" ry="18"/>
<text font-family="Times,serif" font-size="14px" text-anchor="middle" x="445.942" y="-446.3">*ast.BlocStmt</text>
</g>
<!-- mainFn&#45;&gt;mainBody -->
<g class="edge" id="edge1"><title>mainFn-&gt;mainBody</title>
<path fill="none" stroke="black" d="M 445.942 -503.697 C 445.942 -495.983 445.942 -486.712 445.942 -478.112"/>
<polygon fill="black" stroke="black" points="449.442,-478.104 445.942,-468.104 442.442,-478.104 449.442,-478.104"/>
</g>
<!-- bodyList -->
<g class="node" id="node3"><title>bodyList</title>
<ellipse fill="none" stroke="black" cx="445.942" cy="-378" rx="46.2923" ry="18"/>
<text font-family="Times,serif" font-size="14px" text-anchor="middle" x="445.942" y="-374.3">[]ast.Stmt</text>
</g>
<!-- mainBody&#45;&gt;bodyList -->
<g class="edge" id="edge2"><title>mainBody-&gt;bodyList</title>
<path fill="none" stroke="black" d="M 445.942 -431.697 C 445.942 -423.983 445.942 -414.712 445.942 -406.112"/>
<polygon fill="black" stroke="black" points="449.442,-406.104 445.942,-396.104 442.442,-406.104 449.442,-406.104"/>
</g>
<!-- list0 -->
<g class="node" id="node4"><title>list0</title>
<ellipse fill="none" stroke="black" cx="445.942" cy="-306" rx="61.99" ry="18"/>
<text font-family="Times,serif" font-size="14px" text-anchor="middle" x="445.942" y="-302.3">*ast.ExprStmt</text>
</g>
<!-- bodyList&#45;&gt;list0 -->
<g class="edge" id="edge3"><title>bodyList-&gt;list0</title>
<path fill="none" stroke="black" d="M 445.942 -359.697 C 445.942 -351.983 445.942 -342.712 445.942 -334.112"/>
<polygon fill="black" stroke="black" points="449.442,-334.104 445.942,-324.104 442.442,-334.104 449.442,-334.104"/>
</g>
<!-- call -->
<g class="node" id="node5"><title>call</title>
<ellipse fill="none" stroke="black" cx="445.942" cy="-234" rx="59.2899" ry="18"/>
<text font-family="Times,serif" font-size="14px" text-anchor="middle" x="445.942" y="-230.3">*ast.CallExpr</text>
</g>
<!-- list0&#45;&gt;call -->
<g class="edge" id="edge4"><title>list0-&gt;call</title>
<path fill="none" stroke="black" d="M 445.942 -287.697 C 445.942 -279.983 445.942 -270.712 445.942 -262.112"/>
<polygon fill="black" stroke="black" points="449.442,-262.104 445.942,-252.104 442.442,-262.104 449.442,-262.104"/>
</g>
<!-- fn -->
<g class="node" id="node6"><title>fn</title>
<ellipse fill="none" stroke="black" cx="303.942" cy="-162" rx="73.387" ry="18"/>
<text font-family="Times,serif" font-size="14px" text-anchor="middle" x="303.942" y="-158.3">*ast.SelectorExpr</text>
</g>
<!-- call&#45;&gt;fn -->
<g class="edge" id="edge5"><title>call-&gt;fn</title>
<path fill="none" stroke="black" d="M 416.174 -218.326 C 395.302 -208.037 367.156 -194.162 344.272 -182.881"/>
<polygon fill="black" stroke="black" points="345.662,-179.664 335.145,-178.382 342.567,-185.943 345.662,-179.664"/>
</g>
<!-- args -->
<g class="node" id="node9"><title>args</title>
<ellipse fill="none" stroke="black" cx="587.942" cy="-162" rx="46.2923" ry="18"/>
<text font-family="Times,serif" font-size="14px" text-anchor="middle" x="587.942" y="-158.3">[]ast.Expr</text>
</g>
<!-- call&#45;&gt;args -->
<g class="edge" id="edge8"><title>call-&gt;args</title>
<path fill="none" stroke="black" d="M 475.71 -218.326 C 497.582 -207.544 527.443 -192.823 550.866 -181.277"/>
<polygon fill="black" stroke="black" points="552.721,-184.265 560.142,-176.704 549.625,-177.986 552.721,-184.265"/>
</g>
<!-- fnPkg -->
<g class="node" id="node7"><title>fnPkg</title>
<ellipse fill="none" stroke="black" cx="92.9418" cy="-90" rx="92.8835" ry="18"/>
<text font-family="Times,serif" font-size="14px" text-anchor="middle" x="92.9418" y="-86.3">*ast.Ident (Name: fmt)</text>
</g>
<!-- fn&#45;&gt;fnPkg -->
<g class="edge" id="edge6"><title>fn-&gt;fnPkg</title>
<path fill="none" stroke="black" d="M 262.255 -147.17 C 229.431 -136.281 183.405 -121.012 147.625 -109.141"/>
<polygon fill="black" stroke="black" points="148.418,-105.717 137.825,-105.89 146.214,-112.361 148.418,-105.717"/>
</g>
<!-- fnFn -->
<g class="node" id="node8"><title>fnFn</title>
<ellipse fill="none" stroke="black" cx="303.942" cy="-90" rx="100.182" ry="18"/>
<text font-family="Times,serif" font-size="14px" text-anchor="middle" x="303.942" y="-86.3">*ast.Ident (Name: Printf)</text>
</g>
<!-- fn&#45;&gt;fnFn -->
<g class="edge" id="edge7"><title>fn-&gt;fnFn</title>
<path fill="none" stroke="black" d="M 303.942 -143.697 C 303.942 -135.983 303.942 -126.712 303.942 -118.112"/>
<polygon fill="black" stroke="black" points="307.442,-118.104 303.942,-108.104 300.442,-118.104 307.442,-118.104"/>
</g>
<!-- args0 -->
<g class="node" id="node10"><title>args0</title>
<ellipse fill="none" stroke="black" cx="587.942" cy="-90" rx="165.971" ry="18"/>
<text font-family="Times,serif" font-size="14px" text-anchor="middle" x="587.942" y="-86.3">*ast.BasicLit (Kind: STRING) (Value: %v)</text>
</g>
<!-- args&#45;&gt;args0 -->
<g class="edge" id="edge9"><title>args-&gt;args0</title>
<path fill="none" stroke="black" d="M 587.942 -143.697 C 587.942 -135.983 587.942 -126.712 587.942 -118.112"/>
<polygon fill="black" stroke="black" points="591.442,-118.104 587.942,-108.104 584.442,-118.104 591.442,-118.104"/>
</g>
<!-- args1 -->
<g class="node" id="node11"><title>args1</title>
<ellipse fill="none" stroke="black" cx="868.942" cy="-90" rx="97.4827" ry="18"/>
<text font-family="Times,serif" font-size="14px" text-anchor="middle" x="868.942" y="-86.3">*ast.BinaryExpr (Op: +)</text>
</g>
<!-- args&#45;&gt;args1 -->
<g class="edge" id="edge10"><title>args-&gt;args1</title>
<path fill="none" stroke="black" d="M 625.839 -151.559 C 671.25 -140.247 748.104 -121.102 803.251 -107.364"/>
<polygon fill="black" stroke="black" points="804.426,-110.679 813.284,-104.865 802.734,-103.886 804.426,-110.679"/>
</g>
<!-- lhs -->
<g class="node" id="node12"><title>lhs</title>
<ellipse fill="none" stroke="black" cx="718.942" cy="-18" rx="141.075" ry="18"/>
<text font-family="Times,serif" font-size="14px" text-anchor="middle" x="718.942" y="-14.3">*ast.BasicLit (Kind: INT) (Value: 1)</text>
</g>
<!-- args1&#45;&gt;lhs -->
<g class="edge" id="edge11"><title>args1-&gt;lhs</title>
<path fill="none" stroke="black" d="M 834.904 -73.1159 C 813.785 -63.26 786.413 -50.4867 763.567 -39.825"/>
<polygon fill="black" stroke="black" points="764.951,-36.6089 754.409,-35.5516 761.991,-42.9522 764.951,-36.6089"/>
</g>
<!-- rhs -->
<g class="node" id="node13"><title>rhs</title>
<ellipse fill="none" stroke="black" cx="1018.94" cy="-18" rx="141.075" ry="18"/>
<text font-family="Times,serif" font-size="14px" text-anchor="middle" x="1018.94" y="-14.3">*ast.BasicLit (Kind: INT) (Value: 1)</text>
</g>
<!-- args1&#45;&gt;rhs -->
<g class="edge" id="edge12"><title>args1-&gt;rhs</title>
<path fill="none" stroke="black" d="M 902.979 -73.1159 C 924.099 -63.26 951.47 -50.4867 974.317 -39.825"/>
<polygon fill="black" stroke="black" points="975.892,-42.9522 983.474,-35.5516 972.932,-36.6089 975.892,-42.9522"/>
</g>
</g>
</svg>